<?xml version="1.0" encoding="UTF-8" standalone="no"?>
<!-- Created with Inkscape (http://www.inkscape.org/) -->

<svg
   xmlns:dc="http://purl.org/dc/elements/1.1/"
   xmlns:cc="http://creativecommons.org/ns#"
   xmlns:rdf="http://www.w3.org/1999/02/22-rdf-syntax-ns#"
   xmlns:svg="http://www.w3.org/2000/svg"
   xmlns="http://www.w3.org/2000/svg"
   xmlns:sodipodi="http://sodipodi.sourceforge.net/DTD/sodipodi-0.dtd"
   xmlns:inkscape="http://www.inkscape.org/namespaces/inkscape"
   version="1.1"
   id="svg2"
   xml:space="preserve"
   width="560"
   height="420"
   viewBox="0 0 560 420"
   sodipodi:docname="p2.svg"
   inkscape:version="0.92.5 (2060ec1f9f, 2020-04-08)"><metadata
     id="metadata8"><rdf:RDF><cc:Work
         rdf:about=""><dc:format>image/svg+xml</dc:format><dc:type
           rdf:resource="http://purl.org/dc/dcmitype/StillImage" /><dc:title></dc:title></cc:Work></rdf:RDF></metadata><defs
     id="defs6" /><sodipodi:namedview
     pagecolor="#ffffff"
     bordercolor="#666666"
     borderopacity="1"
     objecttolerance="10"
     gridtolerance="10"
     guidetolerance="10"
     inkscape:pageopacity="0"
     inkscape:pageshadow="2"
     inkscape:window-width="1920"
     inkscape:window-height="1043"
     id="namedview4"
     showgrid="false"
     inkscape:zoom="1.5893067"
     inkscape:cx="262.897"
     inkscape:cy="185.42845"
     inkscape:window-x="0"
     inkscape:window-y="0"
     inkscape:window-maximized="1"
     inkscape:current-layer="g10" /><g
     id="g10"
     inkscape:groupmode="layer"
     inkscape:label="ink_ext_XXXXXX"
     transform="matrix(1.3333333,0,0,-1.3333333,0,420)"><g
       id="g12"
       transform="scale(0.1)"><path
         d="M 0,0 H 4200 V 3150 H 0 Z"
         style="fill:#ffffff;fill-opacity:1;fill-rule:nonzero;stroke:none"
         id="path14"
         inkscape:connector-curvature="0" /><path
         d="M 0,0 H 4200 V 3150 H 0 Z"
         style="fill:#ffffff;fill-opacity:1;fill-rule:nonzero;stroke:none"
         id="path16"
         inkscape:connector-curvature="0" /><path
         d="m 547.5,345 h 3255 v 2572.5 h -3255 z"
         style="fill:#ffffff;fill-opacity:1;fill-rule:nonzero;stroke:none"
         id="path18"
         inkscape:connector-curvature="0" /><path
         d="M 547.5,345 V 2917.5"
         style="fill:none;stroke:#dfdfdf;stroke-width:5.00250006;stroke-linecap:butt;stroke-linejoin:round;stroke-miterlimit:10;stroke-dasharray:none;stroke-opacity:1"
         id="path20"
         inkscape:connector-curvature="0" /><path
         d="M 1361.25,345 V 2917.5"
         style="fill:none;stroke:#dfdfdf;stroke-width:5.00250006;stroke-linecap:butt;stroke-linejoin:round;stroke-miterlimit:10;stroke-dasharray:none;stroke-opacity:1"
         id="path22"
         inkscape:connector-curvature="0" /><path
         d="M 2175,345 V 2917.5"
         style="fill:none;stroke:#dfdfdf;stroke-width:5.00250006;stroke-linecap:butt;stroke-linejoin:round;stroke-miterlimit:10;stroke-dasharray:none;stroke-opacity:1"
         id="path24"
         inkscape:connector-curvature="0" /><path
         d="M 2988.75,345 V 2917.5"
         style="fill:none;stroke:#dfdfdf;stroke-width:5.00250006;stroke-linecap:butt;stroke-linejoin:round;stroke-miterlimit:10;stroke-dasharray:none;stroke-opacity:1"
         id="path26"
         inkscape:connector-curvature="0" /><path
         d="M 3802.5,345 V 2917.5"
         style="fill:none;stroke:#dfdfdf;stroke-width:5.00250006;stroke-linecap:butt;stroke-linejoin:round;stroke-miterlimit:10;stroke-dasharray:none;stroke-opacity:1"
         id="path28"
         inkscape:connector-curvature="0" /><path
         d="M 3802.5,345 H 547.5"
         style="fill:none;stroke:#dfdfdf;stroke-width:5.00250006;stroke-linecap:butt;stroke-linejoin:round;stroke-miterlimit:10;stroke-dasharray:none;stroke-opacity:1"
         id="path30"
         inkscape:connector-curvature="0" /><path
         d="M 3802.5,666.563 H 547.5"
         style="fill:none;stroke:#dfdfdf;stroke-width:5.00250006;stroke-linecap:butt;stroke-linejoin:round;stroke-miterlimit:10;stroke-dasharray:none;stroke-opacity:1"
         id="path32"
         inkscape:connector-curvature="0" /><path
         d="M 3802.5,988.125 H 547.5"
         style="fill:none;stroke:#dfdfdf;stroke-width:5.00250006;stroke-linecap:butt;stroke-linejoin:round;stroke-miterlimit:10;stroke-dasharray:none;stroke-opacity:1"
         id="path34"
         inkscape:connector-curvature="0" /><path
         d="M 3802.5,1309.69 H 547.5"
         style="fill:none;stroke:#dfdfdf;stroke-width:5.00250006;stroke-linecap:butt;stroke-linejoin:round;stroke-miterlimit:10;stroke-dasharray:none;stroke-opacity:1"
         id="path36"
         inkscape:connector-curvature="0" /><path
         d="M 3802.5,1631.25 H 547.5"
         style="fill:none;stroke:#dfdfdf;stroke-width:5.00250006;stroke-linecap:butt;stroke-linejoin:round;stroke-miterlimit:10;stroke-dasharray:none;stroke-opacity:1"
         id="path38"
         inkscape:connector-curvature="0" /><path
         d="M 3802.5,1952.81 H 547.5"
         style="fill:none;stroke:#dfdfdf;stroke-width:5.00250006;stroke-linecap:butt;stroke-linejoin:round;stroke-miterlimit:10;stroke-dasharray:none;stroke-opacity:1"
         id="path40"
         inkscape:connector-curvature="0" /><path
         d="M 3802.5,2274.38 H 547.5"
         style="fill:none;stroke:#dfdfdf;stroke-width:5.00250006;stroke-linecap:butt;stroke-linejoin:round;stroke-miterlimit:10;stroke-dasharray:none;stroke-opacity:1"
         id="path42"
         inkscape:connector-curvature="0" /><path
         d="M 3802.5,2595.94 H 547.5"
         style="fill:none;stroke:#dfdfdf;stroke-width:5.00250006;stroke-linecap:butt;stroke-linejoin:round;stroke-miterlimit:10;stroke-dasharray:none;stroke-opacity:1"
         id="path44"
         inkscape:connector-curvature="0" /><path
         d="M 3802.5,2917.5 H 547.5"
         style="fill:none;stroke:#dfdfdf;stroke-width:5.00250006;stroke-linecap:butt;stroke-linejoin:round;stroke-miterlimit:10;stroke-dasharray:none;stroke-opacity:1"
         id="path46"
         inkscape:connector-curvature="0" /><path
         d="m 547.5,345 h 3255"
         style="fill:none;stroke:#262626;stroke-width:5.00250006;stroke-linecap:square;stroke-linejoin:round;stroke-miterlimit:10;stroke-dasharray:none;stroke-opacity:1"
         id="path48"
         inkscape:connector-curvature="0" /><path
         d="m 547.5,2917.5 h 3255"
         style="fill:none;stroke:#262626;stroke-width:5.00250006;stroke-linecap:square;stroke-linejoin:round;stroke-miterlimit:10;stroke-dasharray:none;stroke-opacity:1"
         id="path50"
         inkscape:connector-curvature="0" /><path
         d="m 547.5,345 v 32.551"
         style="fill:none;stroke:#262626;stroke-width:5.00250006;stroke-linecap:square;stroke-linejoin:round;stroke-miterlimit:10;stroke-dasharray:none;stroke-opacity:1"
         id="path52"
         inkscape:connector-curvature="0" /><path
         d="m 1361.25,345 v 32.551"
         style="fill:none;stroke:#262626;stroke-width:5.00250006;stroke-linecap:square;stroke-linejoin:round;stroke-miterlimit:10;stroke-dasharray:none;stroke-opacity:1"
         id="path54"
         inkscape:connector-curvature="0" /><path
         d="m 2175,345 v 32.551"
         style="fill:none;stroke:#262626;stroke-width:5.00250006;stroke-linecap:square;stroke-linejoin:round;stroke-miterlimit:10;stroke-dasharray:none;stroke-opacity:1"
         id="path56"
         inkscape:connector-curvature="0" /><path
         d="m 2988.75,345 v 32.551"
         style="fill:none;stroke:#262626;stroke-width:5.00250006;stroke-linecap:square;stroke-linejoin:round;stroke-miterlimit:10;stroke-dasharray:none;stroke-opacity:1"
         id="path58"
         inkscape:connector-curvature="0" /><path
         d="m 3802.5,345 v 32.551"
         style="fill:none;stroke:#262626;stroke-width:5.00250006;stroke-linecap:square;stroke-linejoin:round;stroke-miterlimit:10;stroke-dasharray:none;stroke-opacity:1"
         id="path60"
         inkscape:connector-curvature="0" /><path
         d="m 547.5,2917.5 v -32.55"
         style="fill:none;stroke:#262626;stroke-width:5.00250006;stroke-linecap:square;stroke-linejoin:round;stroke-miterlimit:10;stroke-dasharray:none;stroke-opacity:1"
         id="path62"
         inkscape:connector-curvature="0" /><path
         d="m 1361.25,2917.5 v -32.55"
         style="fill:none;stroke:#262626;stroke-width:5.00250006;stroke-linecap:square;stroke-linejoin:round;stroke-miterlimit:10;stroke-dasharray:none;stroke-opacity:1"
         id="path64"
         inkscape:connector-curvature="0" /><path
         d="m 2175,2917.5 v -32.55"
         style="fill:none;stroke:#262626;stroke-width:5.00250006;stroke-linecap:square;stroke-linejoin:round;stroke-miterlimit:10;stroke-dasharray:none;stroke-opacity:1"
         id="path66"
         inkscape:connector-curvature="0" /><path
         d="m 2988.75,2917.5 v -32.55"
         style="fill:none;stroke:#262626;stroke-width:5.00250006;stroke-linecap:square;stroke-linejoin:round;stroke-miterlimit:10;stroke-dasharray:none;stroke-opacity:1"
         id="path68"
         inkscape:connector-curvature="0" /><path
         d="m 3802.5,2917.5 v -32.55"
         style="fill:none;stroke:#262626;stroke-width:5.00250006;stroke-linecap:square;stroke-linejoin:round;stroke-miterlimit:10;stroke-dasharray:none;stroke-opacity:1"
         id="path70"
         inkscape:connector-curvature="0" /><g
         id="g72"
         transform="scale(10)"><text
           transform="matrix(1,0,0,-1,46.5,20.75)"
           style="font-variant:normal;font-weight:normal;font-size:9.99975014px;font-family:Helvetica;-inkscape-font-specification:Helvetica;writing-mode:lr-tb;fill:#262626;fill-opacity:1;fill-rule:nonzero;stroke:none"
           id="text76"><tspan
             x="0 3.3299167 8.8897781 81.374962 84.70488 90.26474 165.74995 169.07988 248.99997 330.37494"
             y="0"
             sodipodi:role="line"
             id="tspan74">-15-10-505</tspan></text>
</g><path
         d="M 547.5,345 V 2917.5"
         style="fill:none;stroke:#262626;stroke-width:5.00250006;stroke-linecap:square;stroke-linejoin:round;stroke-miterlimit:10;stroke-dasharray:none;stroke-opacity:1"
         id="path78"
         inkscape:connector-curvature="0" /><path
         d="M 3802.5,345 V 2917.5"
         style="fill:none;stroke:#262626;stroke-width:5.00250006;stroke-linecap:square;stroke-linejoin:round;stroke-miterlimit:10;stroke-dasharray:none;stroke-opacity:1"
         id="path80"
         inkscape:connector-curvature="0" /><path
         d="m 547.5,345 h 32.551"
         style="fill:none;stroke:#262626;stroke-width:5.00250006;stroke-linecap:square;stroke-linejoin:round;stroke-miterlimit:10;stroke-dasharray:none;stroke-opacity:1"
         id="path82"
         inkscape:connector-curvature="0" /><path
         d="m 547.5,666.563 h 32.551"
         style="fill:none;stroke:#262626;stroke-width:5.00250006;stroke-linecap:square;stroke-linejoin:round;stroke-miterlimit:10;stroke-dasharray:none;stroke-opacity:1"
         id="path84"
         inkscape:connector-curvature="0" /><path
         d="m 547.5,988.125 h 32.551"
         style="fill:none;stroke:#262626;stroke-width:5.00250006;stroke-linecap:square;stroke-linejoin:round;stroke-miterlimit:10;stroke-dasharray:none;stroke-opacity:1"
         id="path86"
         inkscape:connector-curvature="0" /><path
         d="m 547.5,1309.69 h 32.551"
         style="fill:none;stroke:#262626;stroke-width:5.00250006;stroke-linecap:square;stroke-linejoin:round;stroke-miterlimit:10;stroke-dasharray:none;stroke-opacity:1"
         id="path88"
         inkscape:connector-curvature="0" /><path
         d="m 547.5,1631.25 h 32.551"
         style="fill:none;stroke:#262626;stroke-width:5.00250006;stroke-linecap:square;stroke-linejoin:round;stroke-miterlimit:10;stroke-dasharray:none;stroke-opacity:1"
         id="path90"
         inkscape:connector-curvature="0" /><path
         d="m 547.5,1952.81 h 32.551"
         style="fill:none;stroke:#262626;stroke-width:5.00250006;stroke-linecap:square;stroke-linejoin:round;stroke-miterlimit:10;stroke-dasharray:none;stroke-opacity:1"
         id="path92"
         inkscape:connector-curvature="0" /><path
         d="m 547.5,2274.38 h 32.551"
         style="fill:none;stroke:#262626;stroke-width:5.00250006;stroke-linecap:square;stroke-linejoin:round;stroke-miterlimit:10;stroke-dasharray:none;stroke-opacity:1"
         id="path94"
         inkscape:connector-curvature="0" /><path
         d="m 547.5,2595.94 h 32.551"
         style="fill:none;stroke:#262626;stroke-width:5.00250006;stroke-linecap:square;stroke-linejoin:round;stroke-miterlimit:10;stroke-dasharray:none;stroke-opacity:1"
         id="path96"
         inkscape:connector-curvature="0" /><path
         d="m 547.5,2917.5 h 32.551"
         style="fill:none;stroke:#262626;stroke-width:5.00250006;stroke-linecap:square;stroke-linejoin:round;stroke-miterlimit:10;stroke-dasharray:none;stroke-opacity:1"
         id="path98"
         inkscape:connector-curvature="0" /><path
         d="m 3802.5,345 h -32.55"
         style="fill:none;stroke:#262626;stroke-width:5.00250006;stroke-linecap:square;stroke-linejoin:round;stroke-miterlimit:10;stroke-dasharray:none;stroke-opacity:1"
         id="path100"
         inkscape:connector-curvature="0" /><path
         d="m 3802.5,666.563 h -32.55"
         style="fill:none;stroke:#262626;stroke-width:5.00250006;stroke-linecap:square;stroke-linejoin:round;stroke-miterlimit:10;stroke-dasharray:none;stroke-opacity:1"
         id="path102"
         inkscape:connector-curvature="0" /><path
         d="m 3802.5,988.125 h -32.55"
         style="fill:none;stroke:#262626;stroke-width:5.00250006;stroke-linecap:square;stroke-linejoin:round;stroke-miterlimit:10;stroke-dasharray:none;stroke-opacity:1"
         id="path104"
         inkscape:connector-curvature="0" /><path
         d="m 3802.5,1309.69 h -32.55"
         style="fill:none;stroke:#262626;stroke-width:5.00250006;stroke-linecap:square;stroke-linejoin:round;stroke-miterlimit:10;stroke-dasharray:none;stroke-opacity:1"
         id="path106"
         inkscape:connector-curvature="0" /><path
         d="m 3802.5,1631.25 h -32.55"
         style="fill:none;stroke:#262626;stroke-width:5.00250006;stroke-linecap:square;stroke-linejoin:round;stroke-miterlimit:10;stroke-dasharray:none;stroke-opacity:1"
         id="path108"
         inkscape:connector-curvature="0" /><path
         d="m 3802.5,1952.81 h -32.55"
         style="fill:none;stroke:#262626;stroke-width:5.00250006;stroke-linecap:square;stroke-linejoin:round;stroke-miterlimit:10;stroke-dasharray:none;stroke-opacity:1"
         id="path110"
         inkscape:connector-curvature="0" /><path
         d="m 3802.5,2274.38 h -32.55"
         style="fill:none;stroke:#262626;stroke-width:5.00250006;stroke-linecap:square;stroke-linejoin:round;stroke-miterlimit:10;stroke-dasharray:none;stroke-opacity:1"
         id="path112"
         inkscape:connector-curvature="0" /><path
         d="m 3802.5,2595.94 h -32.55"
         style="fill:none;stroke:#262626;stroke-width:5.00250006;stroke-linecap:square;stroke-linejoin:round;stroke-miterlimit:10;stroke-dasharray:none;stroke-opacity:1"
         id="path114"
         inkscape:connector-curvature="0" /><path
         d="m 3802.5,2917.5 h -32.55"
         style="fill:none;stroke:#262626;stroke-width:5.00250006;stroke-linecap:square;stroke-linejoin:round;stroke-miterlimit:10;stroke-dasharray:none;stroke-opacity:1"
         id="path116"
         inkscape:connector-curvature="0" /><g
         id="g118"
         transform="scale(10)"><text
           transform="matrix(1,0,0,-1,21.5,31.125)"
           style="font-variant:normal;font-weight:normal;font-size:9.99975014px;font-family:Helvetica;-inkscape-font-specification:Helvetica;writing-mode:lr-tb;fill:#262626;fill-opacity:1;fill-rule:nonzero;stroke:none"
           id="text138"><tspan
             x="0 3.3299167 8.8897781 14.449638 20.009501"
             y="0"
             sodipodi:role="line"
             id="tspan120">-1000</tspan><tspan
             x="22.5"
             y="-32.1563"
             id="tspan122">0</tspan><tspan
             x="3.75 9.3098612 14.869722 20.429583"
             y="-64.312599"
             sodipodi:role="line"
             id="tspan124">1000</tspan><tspan
             x="3.75 9.3098612 14.869722 20.429583"
             y="-96.468903"
             sodipodi:role="line"
             id="tspan126">2000</tspan><tspan
             x="3.75 9.3098612 14.869722 20.429583"
             y="-128.6252"
             sodipodi:role="line"
             id="tspan128">3000</tspan><tspan
             x="3.75 9.3098612 14.869722 20.429583"
             y="-160.78149"
             sodipodi:role="line"
             id="tspan130">4000</tspan><tspan
             x="3.75 9.3098612 14.869722 20.429583"
             y="-192.93781"
             sodipodi:role="line"
             id="tspan132">5000</tspan><tspan
             x="3.75 9.3098612 14.869722 20.429583"
             y="-225.0941"
             sodipodi:role="line"
             id="tspan134">6000</tspan><tspan
             x="3.75 9.3098612 14.869722 20.429583"
             y="-257.2504"
             sodipodi:role="line"
             id="tspan136">7000</tspan></text>
</g><path
         d="m 547.5,2889.2 32.879,-247.05 32.883,-230.24 32.879,-214.1 32.871,-198.65 32.879,-183.82 32.882,-169.66 32.879,-156.12 32.879,-143.2 32.883,-130.87 32.871,-119.15 32.879,-107.988 32.883,-97.411 32.879,-87.375 32.874,-77.882 32.88,-68.911 32.88,-60.449 32.88,-52.5 32.88,-45.035 32.88,-38.043 32.88,-31.512 32.88,-25.425 32.87,-19.793 32.88,-14.567 32.88,-9.758 32.88,-5.347 32.88,-1.321 32.88,2.34 32.87,5.633 32.88,8.582 32.88,11.192 32.88,13.492 32.88,15.476 32.88,17.168 32.88,18.578 32.87,19.719 32.89,20.602 32.88,21.246 32.87,21.652 32.88,21.848 32.89,21.828 32.87,21.629 32.88,21.238 32.88,20.695 32.88,19.981 32.88,19.137 32.88,18.168 32.87,17.074 32.88,15.894 32.88,14.602 32.88,13.254 32.88,11.828 32.88,10.355 32.87,8.852 32.88,7.312 32.88,5.774 32.88,4.223 32.88,2.691 32.88,1.187 32.87,-0.285 32.89,-1.695 32.88,-3.047 32.87,-4.312 32.88,-5.496 32.89,-6.579 32.87,-7.535 32.88,-8.371 32.88,-9.058 32.88,-9.594 32.88,-9.961 32.88,-10.149 32.88,-10.14 32.87,-9.93 32.88,-9.492 32.88,-8.836 32.88,-7.93 32.88,-6.754 32.88,-5.32 32.87,-3.598 32.88,-1.582 32.88,0.75 32.88,3.387 32.88,6.375 32.88,9.707 32.88,13.402 32.88,17.461 32.87,21.914 32.89,26.758 32.88,32.028 32.87,37.718 32.88,43.836 32.88,50.407 32.88,57.457 32.88,64.961 32.88,72.97 32.88,81.48 32.87,90.5 32.88,100.05 32.88,110.13 32.88,120.78"
         style="fill:none;stroke:#0072bd;stroke-width:20.00250053;stroke-linecap:butt;stroke-linejoin:round;stroke-miterlimit:10;stroke-dasharray:none;stroke-opacity:1"
         id="path140"
         inkscape:connector-curvature="0" /><path
         d="m 1397.26,357.984 c 2.76,0 5.01,-2.242 5.01,-5 v 0 c 0,-2.761 -2.25,-5.004 -5.01,-5.004 -2.76,0 -5,2.243 -5,5.004 0,2.758 2.24,5 5,5 z m 0,49.996 c -30.37,0 -54.99,-24.621 -54.99,-54.996 0,-30.375 24.62,-55 54.99,-55 30.38,0 55,24.625 55,55 v 0 c 0,30.375 -24.62,54.996 -55,54.996"
         style="fill:#d95319;fill-opacity:1;fill-rule:nonzero;stroke:none"
         id="path142"
         inkscape:connector-curvature="0" /><path
         d="m 2464.49,811.34 c 2.76,0 5,-2.242 5,-5.004 v 0 c 0,-2.758 -2.24,-5 -5,-5 -2.76,0 -5.01,2.242 -5.01,5 0,2.762 2.25,5.004 5.01,5.004 z m 0,49.996 c -30.38,0 -55,-24.625 -55,-55 0,-30.375 24.62,-54.996 55,-54.996 30.37,0 54.99,24.621 54.99,54.996 v 0 c 0,30.375 -24.62,55 -54.99,55"
         style="fill:#edb120;fill-opacity:1;fill-rule:nonzero;stroke:none"
         id="path144"
         inkscape:connector-curvature="0" /><path
         d="m 3151.5,671.566 c 2.76,0 5,-2.242 5,-5.003 v 0 c 0,-2.762 -2.24,-5.004 -5,-5.004 -2.76,0 -5,2.242 -5,5.004 0,2.761 2.24,5.003 5,5.003 z m 0,49.993 c -30.37,0 -55,-24.621 -55,-54.996 0,-30.375 24.63,-54.997 55,-54.997 30.38,0 55,24.622 55,54.997 v 0 c 0,30.375 -24.62,54.996 -55,54.996"
         style="fill:#7e2f8e;fill-opacity:1;fill-rule:nonzero;stroke:none"
         id="path146"
         inkscape:connector-curvature="0" /></g><text
       xml:space="preserve"
       style="font-style:normal;font-weight:normal;font-size:30px;line-height:1.25;font-family:sans-serif;letter-spacing:0px;word-spacing:0px;fill:#000000;fill-opacity:1;stroke:none;stroke-width:0.75"
       x="-83.998894"
       y="-113.25694"
       id="text977"
       transform="scale(1,-1)"><tspan
         sodipodi:role="line"
         id="tspan975"
         x="-83.998894"
         y="-86.713974"
         style="stroke-width:0.75" /></text>
<text
       xml:space="preserve"
       style="font-style:normal;font-weight:normal;font-size:20px;line-height:1.25;font-family:sans-serif;letter-spacing:0px;word-spacing:0px;fill:#000000;fill-opacity:1;stroke:none;stroke-width:0.75"
       x="74.599472"
       y="-4.5580754"
       id="text955"
       transform="scale(1,-1)"><tspan
         sodipodi:role="line"
         id="tspan953"
         x="74.599472"
         y="-4.5580754"
         style="font-style:normal;font-variant:normal;font-weight:normal;font-stretch:normal;font-family:'Latin Modern Sans';-inkscape-font-specification:'Latin Modern Sans';stroke-width:0.75">global minimum</tspan></text>
<text
       xml:space="preserve"
       style="font-style:normal;font-weight:normal;font-size:20px;line-height:1.25;font-family:sans-serif;letter-spacing:0px;word-spacing:0px;fill:#000000;fill-opacity:1;stroke:none;stroke-width:0.75"
       x="249.67581"
       y="-40.422771"
       id="text955-8"
       transform="scale(1,-1)"><tspan
         sodipodi:role="line"
         id="tspan953-1"
         x="249.67581"
         y="-40.422771"
         style="font-style:normal;font-variant:normal;font-weight:normal;font-stretch:normal;font-family:'Latin Modern Sans';-inkscape-font-specification:'Latin Modern Sans';stroke-width:0.75">local minimum</tspan></text>
</g></svg>